fd_2_states
version=1
nRows=47
nColumns=17
inDegrees=yes

# SIMM Motion File Header:
name fd_2_states
datacolumns 17
datarows 47
otherdata 1
range 0.698270 0.727350
endheader
time	/jointset/r_shoulder/r_shoulder_elev/value	/jointset/r_shoulder/r_shoulder_elev/speed	/jointset/r_elbow/r_elbow_flex/value	/jointset/r_elbow/r_elbow_flex/speed	/forceset/TRIlong/activation	/forceset/TRIlong/fiber_length	/forceset/TRIlat/activation	/forceset/TRIlat/fiber_length	/forceset/TRImed/activation	/forceset/TRImed/fiber_length	/forceset/BIClong/activation	/forceset/BIClong/fiber_length	/forceset/BICshort/activation	/forceset/BICshort/fiber_length	/forceset/BRA/activation	/forceset/BRA/fiber_length
      0.698270	      2.331318	    -42.585473	     84.450160	   -275.696836	      0.047978	      0.169315	      0.415999	      0.101144	      0.409682	      0.096211	      0.156657	      0.100142	      0.044324	      0.100851	      0.036612	      0.070505
      0.698867	      2.305899	    -42.604791	     84.285647	   -275.648878	      0.047741	      0.169246	      0.413321	      0.101093	      0.407063	      0.096159	      0.156137	      0.100294	      0.044170	      0.100994	      0.036475	      0.070571
      0.699596	      2.274839	    -42.631262	     84.084779	   -275.575891	      0.047453	      0.169161	      0.410123	      0.101031	      0.403935	      0.096097	      0.155510	      0.100478	      0.043983	      0.101167	      0.036310	      0.070646
      0.699960	      2.259297	    -42.647209	     83.984340	   -275.527882	      0.047311	      0.169119	      0.408553	      0.101000	      0.402399	      0.096065	      0.155200	      0.100570	      0.043891	      0.101254	      0.036228	      0.070686
      0.700075	      2.254418	    -42.652345	     83.952823	   -275.512128	      0.047266	      0.169106	      0.408251	      0.100990	      0.402098	      0.096055	      0.155101	      0.100599	      0.043859	      0.101281	      0.036202	      0.070699
      0.700189	      2.249539	    -42.657576	     83.921307	   -275.495919	      0.047222	      0.169093	      0.408345	      0.100980	      0.402166	      0.096045	      0.155000	      0.100628	      0.043820	      0.101308	      0.036176	      0.070711
      0.700761	      2.225133	    -42.684457	     83.763759	   -275.410909	      0.047001	      0.169026	      0.408800	      0.100930	      0.402497	      0.095996	      0.154500	      0.100773	      0.043628	      0.101445	      0.036049	      0.070772
      0.701610	      2.188862	    -42.724931	     83.529896	   -275.278234	      0.046676	      0.168928	      0.409435	      0.100855	      0.402958	      0.095920	      0.153767	      0.100988	      0.043346	      0.101648	      0.035861	      0.070862
      0.702564	      2.148110	    -42.767499	     83.267534	   -275.133677	      0.046316	      0.168817	      0.410091	      0.100769	      0.403434	      0.095834	      0.152959	      0.101228	      0.043034	      0.101876	      0.035653	      0.070964
      0.703148	      2.123110	    -42.789339	     83.106765	   -275.057430	      0.046098	      0.168749	      0.410466	      0.100716	      0.403706	      0.095781	      0.152471	      0.101375	      0.042845	      0.102016	      0.035527	      0.071024
      0.703869	      2.092234	    -42.812765	     82.908373	   -274.972762	      0.045831	      0.168666	      0.410902	      0.100650	      0.404023	      0.095715	      0.151877	      0.101557	      0.042614	      0.102188	      0.035373	      0.071103
      0.704509	      2.064858	    -42.826659	     82.732596	   -274.919516	      0.045598	      0.168592	      0.411266	      0.100591	      0.404286	      0.095656	      0.151357	      0.101718	      0.042411	      0.102340	      0.035238	      0.071167
      0.705148	      2.037474	    -42.836692	     82.556848	   -274.877125	      0.045366	      0.168518	      0.411609	      0.100532	      0.404535	      0.095597	      0.150844	      0.101878	      0.042210	      0.102492	      0.035104	      0.071237
      0.705787	      2.010087	    -42.838902	     82.381120	   -274.859906	      0.045137	      0.168443	      0.411933	      0.100472	      0.404770	      0.095537	      0.150337	      0.102038	      0.042011	      0.102644	      0.034971	      0.071301
      0.706427	      1.982699	    -42.836395	     82.205398	   -274.856358	      0.044910	      0.168369	      0.412239	      0.100413	      0.404991	      0.095478	      0.149837	      0.102199	      0.041814	      0.102796	      0.034839	      0.071371
      0.707066	      1.955316	    -42.825465	     82.029671	   -274.879817	      0.044685	      0.168295	      0.412528	      0.100353	      0.405201	      0.095418	      0.149343	      0.102359	      0.041619	      0.102947	      0.034709	      0.071435
      0.707705	      1.927942	    -42.809229	     81.853922	   -274.918768	      0.044463	      0.168221	      0.412801	      0.100293	      0.405398	      0.095359	      0.148855	      0.102519	      0.041425	      0.103099	      0.034580	      0.071505
      0.708345	      1.900580	    -42.784268	     81.678141	   -274.985449	      0.044242	      0.168147	      0.413058	      0.100233	      0.405584	      0.095299	      0.148374	      0.102678	      0.041234	      0.103250	      0.034452	      0.071569
      0.708984	      1.873237	    -42.753599	     81.502311	   -275.068740	      0.044024	      0.168073	      0.413301	      0.100173	      0.405760	      0.095239	      0.147898	      0.102838	      0.041044	      0.103402	      0.034325	      0.071638
      0.709623	      1.845916	    -42.714094	     81.326420	   -275.179802	      0.043807	      0.167999	      0.413531	      0.100113	      0.405925	      0.095180	      0.147428	      0.102997	      0.040856	      0.103553	      0.034199	      0.071702
      0.709984	      1.830511	    -42.689255	     81.227134	   -275.249761	      0.043686	      0.167957	      0.413654	      0.100079	      0.406015	      0.095146	      0.147166	      0.103087	      0.040751	      0.103639	      0.034129	      0.071741
      0.710256	      1.818898	    -42.668825	     81.152231	   -275.307730	      0.043595	      0.167926	      0.412912	      0.100054	      0.405242	      0.095121	      0.146971	      0.103155	      0.040671	      0.103703	      0.034103	      0.071769
      0.710528	      1.807291	    -42.647206	     81.077312	   -275.369186	      0.043505	      0.167894	      0.412010	      0.100028	      0.404310	      0.095095	      0.146777	      0.103223	      0.040593	      0.103767	      0.034083	      0.071797
      0.711889	      1.749350	    -42.526695	     80.702447	   -275.708894	      0.043057	      0.167737	      0.407618	      0.099903	      0.399767	      0.094971	      0.145824	      0.103562	      0.040204	      0.104090	      0.033984	      0.071940
      0.712394	      1.727867	    -42.476613	     80.563049	   -275.848998	      0.042894	      0.167678	      0.406034	      0.099857	      0.398128	      0.094925	      0.145476	      0.103687	      0.040061	      0.104208	      0.033948	      0.071989
      0.713087	      1.698479	    -42.407081	     80.371983	   -276.039501	      0.042671	      0.167598	      0.403906	      0.099795	      0.395927	      0.094863	      0.145005	      0.103860	      0.039868	      0.104372	      0.033899	      0.072060
      0.714051	      1.657641	    -42.306351	     80.105713	   -276.309775	      0.042365	      0.167486	      0.401019	      0.099708	      0.392941	      0.094776	      0.144360	      0.104099	      0.039602	      0.104600	      0.033831	      0.072157
      0.714634	      1.632999	    -42.245646	     79.944611	   -276.467427	      0.042182	      0.167419	      0.399316	      0.099656	      0.391179	      0.094724	      0.143976	      0.104244	      0.039442	      0.104737	      0.033790	      0.072220
      0.715216	      1.608393	    -42.183048	     79.783417	   -276.628070	      0.042001	      0.167351	      0.397644	      0.099604	      0.389448	      0.094673	      0.143596	      0.104388	      0.039285	      0.104875	      0.033750	      0.072278
      0.715955	      1.577249	    -42.104690	     79.578918	   -276.822750	      0.041773	      0.167266	      0.395567	      0.099538	      0.387300	      0.094607	      0.143120	      0.104572	      0.039087	      0.105049	      0.033699	      0.072355
      0.716694	      1.546164	    -42.024781	     79.374277	   -277.017015	      0.041548	      0.167180	      0.393538	      0.099473	      0.385200	      0.094541	      0.142651	      0.104755	      0.038891	      0.105223	      0.033649	      0.072428
      0.717335	      1.519276	    -41.957609	     79.196845	   -277.173208	      0.041355	      0.167106	      0.391817	      0.099416	      0.383418	      0.094485	      0.142250	      0.104914	      0.038723	      0.105374	      0.033606	      0.072498
      0.717975	      1.492431	    -41.888593	     79.019313	   -277.331613	      0.041164	      0.167032	      0.390130	      0.099359	      0.381671	      0.094428	      0.141854	      0.105072	      0.038556	      0.105525	      0.033564	      0.072559
      0.718615	      1.465630	    -41.821752	     78.841683	   -277.477980	      0.040975	      0.166958	      0.388475	      0.099302	      0.379959	      0.094371	      0.141462	      0.105231	      0.038391	      0.105676	      0.033522	      0.072627
      0.719256	      1.438872	    -41.754120	     78.663960	   -277.622918	      0.040787	      0.166884	      0.386852	      0.099245	      0.378279	      0.094314	      0.141076	      0.105389	      0.038228	      0.105827	      0.033480	      0.072690
      0.719896	      1.412157	    -41.687952	     78.486147	   -277.758480	      0.040601	      0.166809	      0.385261	      0.099188	      0.376632	      0.094257	      0.140694	      0.105547	      0.038066	      0.105977	      0.033438	      0.072756
      0.720724	      1.377671	    -41.601377	     78.256067	   -277.931341	      0.040363	      0.166714	      0.383284	      0.099114	      0.374617	      0.094184	      0.140116	      0.105752	      0.037859	      0.106172	      0.033362	      0.072838
      0.721327	      1.352608	    -41.539650	     78.088464	   -278.049038	      0.040192	      0.166644	      0.381901	      0.099061	      0.373234	      0.094130	      0.139632	      0.105902	      0.037710	      0.106314	      0.033289	      0.072903
      0.721930	      1.327583	    -41.475429	     77.920788	   -278.172978	      0.040022	      0.166574	      0.380543	      0.099007	      0.371876	      0.094076	      0.139154	      0.106052	      0.037562	      0.106455	      0.033217	      0.072962
      0.722533	      1.302596	    -41.411490	     77.753039	   -278.293455	      0.039854	      0.166504	      0.379209	      0.098953	      0.370541	      0.094023	      0.138682	      0.106202	      0.037415	      0.106597	      0.033146	      0.073024
      0.723394	      1.266992	    -41.317361	     77.513425	   -278.471251	      0.039616	      0.166405	      0.377346	      0.098876	      0.368676	      0.093946	      0.138017	      0.106416	      0.037208	      0.106799	      0.033045	      0.073109
      0.724019	      1.241165	    -41.248991	     77.339170	   -278.597182	      0.039446	      0.166332	      0.376021	      0.098820	      0.367350	      0.093890	      0.137540	      0.106572	      0.037059	      0.106946	      0.032973	      0.073177
      0.724645	      1.215381	    -41.177654	     77.164835	   -278.730894	      0.039276	      0.166260	      0.374720	      0.098764	      0.366048	      0.093834	      0.137070	      0.106727	      0.036912	      0.107092	      0.032901	      0.073237
      0.725271	      1.189642	    -41.106381	     76.990416	   -278.861715	      0.039109	      0.166188	      0.373444	      0.098708	      0.364770	      0.093778	      0.136605	      0.106882	      0.036765	      0.107239	      0.032830	      0.073302
      0.726087	      1.156117	    -41.009960	     76.762652	   -279.040354	      0.038892	      0.166093	      0.371812	      0.098635	      0.363136	      0.093704	      0.136006	      0.107085	      0.036576	      0.107430	      0.032738	      0.073382
      0.726718	      1.130249	    -40.935338	     76.586434	   -279.175578	      0.038726	      0.166020	      0.370577	      0.098578	      0.361899	      0.093648	      0.135549	      0.107241	      0.036432	      0.107577	      0.032667	      0.073450
      0.727350	      1.104428	    -40.857352	     76.410128	   -279.319823	      0.038562	      0.165947	      0.369365	      0.098521	      0.360684	      0.093591	      0.135098	      0.107397	      0.036289	      0.107725	      0.032597	      0.073510
